<svg xmlns="http://www.w3.org/2000/svg" width="40.414" height="42.418" viewBox="0 0 40.414 42.418">
  <g id="Group_66" data-name="Group 66" transform="translate(-4.086 -3.496)">
    <path id="Path_3698" data-name="Path 3698" d="M5.5,34.5l10,10" fill="none" stroke="#00ffc9" stroke-linecap="round" stroke-linejoin="round" stroke-width="2"/>
    <path id="Path_3699" data-name="Path 3699" d="M10.5,39.5l8-8" fill="none" stroke="#00ffc9" stroke-linecap="round" stroke-linejoin="round" stroke-width="2"/>
    <path id="Path_3700" data-name="Path 3700" d="M22.5,27.5l5-5" fill="none" stroke="#00ffc9" stroke-linecap="round" stroke-linejoin="round" stroke-width="2"/>
    <path id="Path_3701" data-name="Path 3701" d="M35.5,14.5l3-3" fill="none" stroke="#00ffc9" stroke-linecap="round" stroke-linejoin="round" stroke-width="2"/>
    <path id="Path_3702" data-name="Path 3702" d="M17.17,26.17h5.66v5.66H17.17Z" transform="translate(-14.65 22.64) rotate(-45)" fill="none" stroke="#00ffc9" stroke-linecap="round" stroke-linejoin="round" stroke-width="2"/>
    <path id="Path_3703" data-name="Path 3703" d="M29.5,23.5l-3-3,4-4a4.51,4.51,0,0,0,3,3Z" fill="none" stroke="#00ffc9" stroke-linecap="round" stroke-linejoin="round" stroke-width="2"/>
    <path id="Path_3704" data-name="Path 3704" d="M20.5,25.5v-2c0-1.4.009-3.011,1-4l11-11c.418-.42.407-1,1-1a3.757,3.757,0,0,1,2,1l8,8v-6l-5-5c-1.13-1.137-2.4-1-4-1s-2.87-.137-4,1l-13,13c-.993.991-1,2.6-1,4v7" fill="none" stroke="#00ffc9" stroke-linecap="round" stroke-linejoin="round" stroke-width="2"/>
  </g>
</svg>
