<svg id="Group_63" data-name="Group 63" xmlns="http://www.w3.org/2000/svg" width="40" height="40" viewBox="0 0 40 40">
  <path id="gate_valve_pipe" data-name="gate valve pipe" d="M36.667,15a3.333,3.333,0,0,0-3.333,3.333h-5V14.167a.833.833,0,0,0-.833-.833H25.833V12.5a2.5,2.5,0,0,0-2.5-2.5.833.833,0,0,1-.833-.833V8.333h8.333a2.5,2.5,0,1,0,0-5H22.5V2.5a2.5,2.5,0,1,0-5,0v.833H9.167a2.5,2.5,0,0,0,0,5H17.5v.833a.833.833,0,0,1-.833.833,2.5,2.5,0,0,0-2.5,2.5v.833H12.5a.833.833,0,0,0-.833.833v4.167h-5a3.333,3.333,0,0,0-6.667,0V36.667a3.333,3.333,0,1,0,6.667,0V35H17.133a3.333,3.333,0,0,0,5.733,0H33.333v1.667a3.333,3.333,0,1,0,6.667,0V18.333A3.333,3.333,0,0,0,36.667,15ZM19.167,2.5a.833.833,0,1,1,1.667,0v.833H19.167ZM9.167,5H30.833a.833.833,0,1,1,0,1.667H9.167A.833.833,0,0,1,9.167,5Zm6.667,7.5a.833.833,0,0,1,.833-.833,2.5,2.5,0,0,0,2.5-2.5V8.333h1.667v.833a2.5,2.5,0,0,0,2.5,2.5.833.833,0,0,1,.833.833v.833H15.833Zm-2.5,2.5H26.667v3.333H13.333ZM5,36.667a1.667,1.667,0,1,1-3.333,0V18.333a1.667,1.667,0,0,1,3.333,0Zm1.667-3.333V20h10V33.333ZM20,35a1.667,1.667,0,0,1-1.667-1.667V20h3.333V33.333A1.667,1.667,0,0,1,20,35Zm3.333-1.667V20h10V33.333Zm15,3.333a1.667,1.667,0,1,1-3.333,0V18.333a1.667,1.667,0,1,1,3.333,0Z" fill="#00ffc9"/>
</svg>
