<svg xmlns="http://www.w3.org/2000/svg" width="40" height="40" viewBox="0 0 40 40">
  <g id="Group_70" data-name="Group 70" transform="translate(-255.998 -255.998)">
    <path id="Layer_x0020_1" d="M276,256a20,20,0,1,1-14.142,5.858A19.937,19.937,0,0,1,276,256Zm12.964,7.036A18.334,18.334,0,1,0,294.331,276,18.276,18.276,0,0,0,288.962,263.034Z" transform="translate(0)" fill="#00ffc9"/>
    <path id="Path_3751" data-name="Path 3751" d="M981.943,789.03a5.619,5.619,0,0,0,3.915-.591,13.928,13.928,0,0,0,4.762-4.171,26.275,26.275,0,0,0,3.473-8.045,6.374,6.374,0,0,0-5.182-.283,9.5,9.5,0,0,0-2.994,1.814,12.822,12.822,0,0,0-2.425,2.887,10.665,10.665,0,0,0-1.549,8.389Zm4.637.9a6.97,6.97,0,0,1-5.568.547l-.358-.133-.132-.366c-1.173-3.247-.358-7.1,1.571-10.218a14.5,14.5,0,0,1,2.747-3.265,11.142,11.142,0,0,1,3.516-2.127,7.973,7.973,0,0,1,7.141.74l.54.334-.179.61-.11.376c-.708,2.427-1.767,6.061-3.807,8.827A15.62,15.62,0,0,1,986.58,789.93Z" transform="translate(-705.126 -504.367)" fill="#00ffc9"/>
    <path id="Path_3752" data-name="Path 3752" d="M468.868,756.848a13.46,13.46,0,0,0-6.684-4.588,31.89,31.89,0,0,1-3.284-1.425,9.462,9.462,0,0,0-.352,3.341,10.412,10.412,0,0,0,6.391,8.75,8.949,8.949,0,0,0,3.07.642A14.7,14.7,0,0,1,468.868,756.848Zm-6.1-6.145a14.847,14.847,0,0,1,7.67,5.474l.267.349-.135.417c-.13.4-.067.209-.1.3a13.284,13.284,0,0,0-.71,7l.151.9-.906.066a10.506,10.506,0,0,1-4.679-.733,12.1,12.1,0,0,1-7.43-10.183,11.135,11.135,0,0,1,.774-4.965l.354-.887.82.473A26.538,26.538,0,0,0,462.771,750.7Z" transform="translate(-195.645 -479.62)" fill="#00ffc9"/>
    <path id="Path_3753" data-name="Path 3753" d="M1030.671,1022.339a.822.822,0,0,1-1.074.459.836.836,0,0,1-.455-1.085,22.236,22.236,0,0,1,3.045-5.509,10.5,10.5,0,0,1,3.887-3.182.82.82,0,0,1,1.087.42.834.834,0,0,1-.416,1.1,8.885,8.885,0,0,0-3.268,2.7A20.616,20.616,0,0,0,1030.671,1022.339Z" transform="translate(-752.952 -737.24)" fill="#00ffc9"/>
    <path id="Path_3754" data-name="Path 3754" d="M571.3,922.026a.834.834,0,0,1,.406,1.1.819.819,0,0,1-1.09.41,18.394,18.394,0,0,1-4.69-3.153,17.485,17.485,0,0,1-3.436-4.355.837.837,0,0,1,.316-1.133.82.82,0,0,1,1.122.319,15.82,15.82,0,0,0,3.107,3.945A16.722,16.722,0,0,0,571.3,922.026Z" transform="translate(-298.409 -641.635)" fill="#00ffc9"/>
  </g>
</svg>
