<svg xmlns="http://www.w3.org/2000/svg" width="31.66" height="40" viewBox="0 0 31.66 40">
  <g id="Group_62" data-name="Group 62" transform="translate(-5.004)">
    <g id="pressure_meter" data-name="pressure meter" transform="translate(5.004)">
      <path id="Path_3681" data-name="Path 3681" d="M20.834,0a15.833,15.833,0,0,0-7.5,29.775V32.5a2.5,2.5,0,0,0,2.5,2.5v4.167a.833.833,0,1,0,1.667,0V35h6.667v4.167a.833.833,0,1,0,1.667,0V35a2.5,2.5,0,0,0,2.5-2.5V29.775A15.833,15.833,0,0,0,20.834,0Zm5.833,32.5a.833.833,0,0,1-.833.833h-10A.833.833,0,0,1,15,32.5V30.542a15.683,15.683,0,0,0,11.667,0ZM20.834,30A14.167,14.167,0,1,1,35,15.833,14.167,14.167,0,0,1,20.834,30Z" transform="translate(-5.004)" fill="#00ffc9"/>
      <path id="Path_3682" data-name="Path 3682" d="M21.5,4A12.5,12.5,0,1,0,34,16.5,12.5,12.5,0,0,0,21.5,4Zm.833,23.333V26.5a.833.833,0,0,0-1.667,0v.833a10.833,10.833,0,0,1-9.958-10H11.5a.833.833,0,1,0,0-1.667h-.792a10.833,10.833,0,0,1,9.958-9.958V6.5a.833.833,0,1,0,1.667,0V5.667a10.833,10.833,0,0,1,10,10H31.5a.833.833,0,1,0,0,1.667h.833A10.833,10.833,0,0,1,22.333,27.333Z" transform="translate(-5.67 -0.667)" fill="#00ffc9"/>
      <path id="Path_3683" data-name="Path 3683" d="M26.592,12.241a.833.833,0,0,0-1.225.05c-2.9,3.425-2.525,3.042-2.7,3.042a2.5,2.5,0,0,0-2.442,3.033L16.2,23.124A.833.833,0,0,0,17.375,24.3c5.6-4.742,4.458-3.967,5.292-3.967a2.5,2.5,0,0,0,2.5-2.617C29.458,14.074,29.258,14.908,26.592,12.241Zm-3.925,6.425a.833.833,0,1,1,.833-.833A.833.833,0,0,1,22.667,18.666Z" transform="translate(-6.837 -1.999)" fill="#00ffc9"/>
    </g>
  </g>
</svg>
