<svg xmlns="http://www.w3.org/2000/svg" width="40" height="39.997" viewBox="0 0 40 39.997">
  <g id="Group_69" data-name="Group 69" transform="translate(0 -0.004)">
    <g id="Layer_2" data-name="Layer 2" transform="translate(0 0.004)">
      <g id="layer_1" data-name="layer 1">
        <path id="Path_3719" data-name="Path 3719" d="M7.5,42.333H.833A.833.833,0,0,1,0,41.5V29.833A.833.833,0,0,1,.833,29H7.5a.833.833,0,0,1,.833.833V41.5A.833.833,0,0,1,7.5,42.333ZM1.667,40.667h5v-10h-5Z" transform="translate(0 -4.837)" fill="#00ffc9"/>
        <path id="Path_3720" data-name="Path 3720" d="M23.963,45.327H23.78l-15-3.333.367-1.667L23.855,43.66,39.8,35.644V33.935L29.188,36.994l-.45-1.667L40.4,31.994a.83.83,0,0,1,1.058.8v3.333a.833.833,0,0,1-.458.742L24.338,45.2A.833.833,0,0,1,23.963,45.327Z" transform="translate(-1.463 -5.33)" fill="#00ffc9"/>
        <path id="Path_3721" data-name="Path 3721" d="M21.483,39.833a.833.833,0,0,1-.325-.067l-5.833-2.5.65-1.533,5.592,2.433,6.583-1.5V34.833H22.317a.833.833,0,0,1-.533-.192L17.05,30.666,9.067,31.5,8.9,29.833,17.233,29a.833.833,0,0,1,.617.192l4.767,3.975h6.367a.833.833,0,0,1,.833.833v3.333a.833.833,0,0,1-.65.833l-7.5,1.667Z" transform="translate(-1.483 -4.836)" fill="#00ffc9"/>
        <path id="Path_3722" data-name="Path 3722" d="M4,39H5.667v1.667H4Z" transform="translate(-0.667 -6.503)" fill="#00ffc9"/>
        <path id="Path_3723" data-name="Path 3723" d="M43,23h4.167v1.667H43Z" transform="translate(-7.167 -3.837)" fill="#00ffc9"/>
        <path id="Path_3724" data-name="Path 3724" d="M0,0H4.717V1.667H0Z" transform="translate(33.575 17.739) rotate(-45)" fill="#00ffc9"/>
        <path id="Path_3725" data-name="Path 3725" d="M0,0H1.667V4.717H0Z" transform="translate(33.58 22.254) rotate(-45)" fill="#00ffc9"/>
        <path id="Path_3726" data-name="Path 3726" d="M8,23h4.167v1.667H8Z" transform="translate(-1.333 -3.837)" fill="#00ffc9"/>
        <path id="Path_3727" data-name="Path 3727" d="M0,0H2.358V1.667H0Z" transform="translate(10.248 22.741) rotate(-45)" fill="#00ffc9"/>
        <path id="Path_3728" data-name="Path 3728" d="M0,0H1.667V4.717H0Z" transform="translate(8.581 15.585) rotate(-45)" fill="#00ffc9"/>
        <path id="Path_3729" data-name="Path 3729" d="M26.167,24.167A9.167,9.167,0,0,1,17,15C17,8.809,25.233.592,25.583.242a.833.833,0,0,1,1.167,0C27.1.592,35.333,8.809,35.333,15a9.167,9.167,0,0,1-9.167,9.167Zm0-22.133c-1.858,1.975-7.5,8.333-7.5,12.967a7.5,7.5,0,1,0,15,0c0-4.617-5.642-10.992-7.5-12.967Z" transform="translate(-2.833 -0.004)" fill="#00ffc9"/>
        <path id="Path_3730" data-name="Path 3730" d="M28,23.833V22.167A4.167,4.167,0,0,0,32.167,18h1.667A5.833,5.833,0,0,1,28,23.833Z" transform="translate(-4.667 -3.003)" fill="#00ffc9"/>
      </g>
    </g>
  </g>
</svg>
