<svg xmlns="http://www.w3.org/2000/svg" width="39.942" height="40" viewBox="0 0 39.942 40">
  <g id="Group_67" data-name="Group 67" transform="translate(-0.069)">
    <g id="industrial_robot_drill" data-name="industrial robot drill" transform="translate(0.069)">
      <path id="Path_3705" data-name="Path 3705" d="M35.845,0a4.167,4.167,0,0,0-4.167,4.167V5H30.012V3.333a.833.833,0,0,0-.833-.833H25.845a.833.833,0,0,0-.833.833H4.178a4.167,4.167,0,0,0-2.442,7.5C11.062,26.125,10.012,24.167,10.012,25v1.667h-2.5a.833.833,0,0,0-.833.833V35a2.5,2.5,0,0,0,0,5H23.345a2.5,2.5,0,1,0,0-5V27.5a.833.833,0,0,0-.833-.833h-2.5c0-4.167.692-2.258-8.233-15H25.012a.833.833,0,0,0,.833.833h3.333a.833.833,0,0,0,.833-.833V10h1.667v2.5a.833.833,0,0,0,.833.833v2.5a.833.833,0,0,0,.833.833h1.667v7.5a.833.833,0,1,0,1.667,0v-7.5h1.667a.833.833,0,0,0,.833-.833v-2.5a.833.833,0,0,0,.833-.833V4.167A4.167,4.167,0,0,0,35.845,0Zm-2.5,4.167a2.5,2.5,0,0,1,5,0v7.5h-5ZM4.178,5a2.5,2.5,0,1,1-2.5,2.5A2.5,2.5,0,0,1,4.178,5ZM23.345,38.333H6.678a.833.833,0,0,1,0-1.667H23.345a.833.833,0,1,1,0,1.667ZM21.678,35H8.345V28.333H21.678Zm-10-8.333V25a3.333,3.333,0,1,1,6.667,0v1.667ZM15.6,20.042a5,5,0,0,0-4.858,2.367L4.178,11.667H9.745Zm12.742-9.208H26.678A.833.833,0,0,0,25.845,10H7.512a4.075,4.075,0,0,0,0-5h17.5V7.5a.833.833,0,1,0,1.667,0V4.167h1.667Zm1.667-2.5V6.667h1.667V8.333ZM37.512,15H34.178V13.333h3.333Z" transform="translate(-0.069)" fill="#00ffc9"/>
      <path id="Path_3706" data-name="Path 3706" d="M17.833,28a.833.833,0,1,0,.833.833A.833.833,0,0,0,17.833,28Z" transform="translate(-2.891 -4.667)" fill="#00ffc9"/>
      <path id="Path_3707" data-name="Path 3707" d="M4.833,9.667A.833.833,0,1,0,4,8.833.833.833,0,0,0,4.833,9.667Z" transform="translate(-0.724 -1.333)" fill="#00ffc9"/>
      <path id="Path_3708" data-name="Path 3708" d="M19.167,37H15.833a.833.833,0,0,0,0,1.667h3.333a.833.833,0,1,0,0-1.667Z" transform="translate(-2.558 -6.167)" fill="#00ffc9"/>
    </g>
  </g>
</svg>
