<svg xmlns="http://www.w3.org/2000/svg" width="42" height="42" viewBox="0 0 42 42">
  <g id="Group_68" data-name="Group 68" transform="translate(-3 -3)">
    <path id="Path_3709" data-name="Path 3709" d="M4,36H44v8H4Z" fill="none" stroke="#00ffc9" stroke-linecap="round" stroke-linejoin="round" stroke-width="2"/>
    <path id="Path_3710" data-name="Path 3710" d="M44,40H40" fill="none" stroke="#00ffc9" stroke-linecap="round" stroke-linejoin="round" stroke-width="2"/>
    <path id="Path_3711" data-name="Path 3711" d="M33,40H30" fill="none" stroke="#00ffc9" stroke-linecap="round" stroke-linejoin="round" stroke-width="2"/>
    <path id="Path_3712" data-name="Path 3712" d="M18,40H15" fill="none" stroke="#00ffc9" stroke-linecap="round" stroke-linejoin="round" stroke-width="2"/>
    <path id="Path_3713" data-name="Path 3713" d="M25,40H23" fill="none" stroke="#00ffc9" stroke-linecap="round" stroke-linejoin="round" stroke-width="2"/>
    <path id="Path_3714" data-name="Path 3714" d="M8,40H4" fill="none" stroke="#00ffc9" stroke-linecap="round" stroke-linejoin="round" stroke-width="2"/>
    <path id="Path_3715" data-name="Path 3715" d="M8,35v1L22.36,18.77a2.131,2.131,0,0,1,3.28,0L40,36V35" fill="none" stroke="#00ffc9" stroke-linecap="round" stroke-linejoin="round" stroke-width="2"/>
    <path id="Path_3716" data-name="Path 3716" d="M22,16a2,2,0,1,0,2-2V12" fill="none" stroke="#00ffc9" stroke-linecap="round" stroke-linejoin="round" stroke-width="2"/>
    <path id="Path_3717" data-name="Path 3717" d="M26,12H22L21,7h6Z" fill="none" stroke="#00ffc9" stroke-linecap="round" stroke-linejoin="round" stroke-width="2"/>
    <path id="Path_3718" data-name="Path 3718" d="M26,4V7H22V4" fill="none" stroke="#00ffc9" stroke-linecap="round" stroke-linejoin="round" stroke-width="2"/>
  </g>
</svg>
