<svg id="Layer_x0020_1_0" xmlns="http://www.w3.org/2000/svg" width="40" height="40" viewBox="0 0 40 40">
  <path id="Path_3733" data-name="Path 3733" d="M734.377,1189.461a4.078,4.078,0,0,1,2.04-3.874,9.457,9.457,0,0,1,4.653-.9.833.833,0,0,1,.833.833c0,.025,0,.05,0,.075l-.025,14.118a.83.83,0,0,1-1.419.585h0l-.145-.145c-1.326-1.324-5.721-5.714-5.93-10.657,0-.011,0-.022,0-.033Zm2.867-2.435a2.542,2.542,0,0,0-1.2,2.435h0c.152,3.254,2.517,6.359,4.176,8.192l.02-11.286A6.745,6.745,0,0,0,737.244,1187.026Z" transform="translate(-721.92 -1160.54)" fill="#00ffc9"/>
  <path id="Path_3734" data-name="Path 3734" d="M1032.173,268.811a4.079,4.079,0,0,1-2.04,3.874,9.458,9.458,0,0,1-4.653.9.834.834,0,0,1-.833-.833c0-.025,0-.05,0-.075l.025-14.118a.83.83,0,0,1,1.419-.585h0l.145.145c1.326,1.324,5.721,5.714,5.93,10.657,0,.011,0,.022,0,.033h0Zm-2.867,2.435a2.542,2.542,0,0,0,1.2-2.435h0c-.152-3.254-2.517-6.358-4.176-8.192l-.02,11.286A6.745,6.745,0,0,0,1029.307,271.246Z" transform="translate(-1004.63 -257.732)" fill="#00ffc9"/>
  <path id="Path_3735" data-name="Path 3735" d="M267.2,735.983a4.079,4.079,0,0,1,3.874,2.04,9.458,9.458,0,0,1,.9,4.653.833.833,0,0,1-.833.833c-.025,0-.05,0-.075,0l-14.118-.025a.83.83,0,0,1-.585-1.419h0l.145-.145c1.324-1.326,5.714-5.721,10.657-5.93h.033v0Zm2.435,2.867a2.542,2.542,0,0,0-2.435-1.2h0c-3.254.152-6.358,2.517-8.192,4.176l11.286.02a6.745,6.745,0,0,0-.659-2.994Z" transform="translate(-256.125 -723.526)" fill="#00ffc9"/>
  <path id="Path_3736" data-name="Path 3736" d="M1187.852,1033.784a4.079,4.079,0,0,1-3.874-2.04,9.457,9.457,0,0,1-.9-4.653.833.833,0,0,1,.833-.833c.025,0,.05,0,.075,0l14.118.025a.83.83,0,0,1,.585,1.419h0l-.145.145c-1.324,1.326-5.714,5.721-10.657,5.93h-.033Zm-2.435-2.867a2.542,2.542,0,0,0,2.435,1.2h0c3.254-.152,6.359-2.517,8.192-4.176l-11.286-.02A6.746,6.746,0,0,0,1185.417,1030.916Z" transform="translate(-1158.931 -1006.24)" fill="#00ffc9"/>
  <path id="Layer_x0020_1" d="M899.329,896a3.334,3.334,0,1,1-2.357.977A3.324,3.324,0,0,1,899.329,896Zm1.179,2.155a1.667,1.667,0,1,0,.488,1.179A1.662,1.662,0,0,0,900.507,898.154Z" transform="translate(-879.33 -879.375)" fill="#00ffc9"/>
</svg>
