<svg xmlns="http://www.w3.org/2000/svg" width="44.178" height="40.773" viewBox="0 0 44.178 40.773">
  <g id="Layer_x0020_1" transform="translate(0.428 0.914)">
    <path id="Path_3739" data-name="Path 3739" d="M256.232,415.35h4.486v1.482H283.8l-.123.888L280,444.385l-.093.671h-.679l-26.7.01h-.888l.116-.879,3.7-28.157.09-.681h.683Zm2.924,1.563h-2.241l-3.5,26.6,25.129-.009,3.468-25.105H259.155v-1.482Z" transform="translate(-245.496 -405.209)" fill="#00ffc9"/>
    <path id="Path_3740" data-name="Path 3740" d="M1458.95,415.35h3.51v29.719h-8.247l.121-.885,3.844-28.157.093-.678h.68Zm1.948,1.563h-1.268L1456,443.507h4.9Z" transform="translate(-1418.71 -405.21)" fill="#00ffc9"/>
    <path id="Path_3741" data-name="Path 3741" d="M353.57,658.217h3.353l-.365,1.038a57.923,57.923,0,0,0-2.775,11.287,50.873,50.873,0,0,0-.362,10.629l.06.836h-7.354l.054-.83a60.589,60.589,0,0,1,2.282-13.144,28.25,28.25,0,0,1,4.505-9.529l.236-.287Zm1.162,1.563h-.789a27.846,27.846,0,0,0-3.984,8.693,58.578,58.578,0,0,0-2.161,11.972h4.014a52.522,52.522,0,0,1,.427-10.116A58.93,58.93,0,0,1,354.732,659.78Z" transform="translate(-337.677 -642.147)" fill="#00ffc9"/>
    <path id="Path_3742" data-name="Path 3742" d="M657.073,658.217h3.352l-.365,1.038a57.929,57.929,0,0,0-2.775,11.287,50.873,50.873,0,0,0-.362,10.629l.06.836H649.63l.054-.83a60.588,60.588,0,0,1,2.282-13.144,28.25,28.25,0,0,1,4.505-9.529l.236-.287Zm1.162,1.563h-.789a27.843,27.843,0,0,0-3.984,8.693,58.572,58.572,0,0,0-2.161,11.972h4.014a52.522,52.522,0,0,1,.427-10.116,58.933,58.933,0,0,1,2.493-10.548Z" transform="translate(-633.77 -642.147)" fill="#00ffc9"/>
    <path id="Path_3743" data-name="Path 3743" d="M960.571,658.217h3.353l-.365,1.038a57.93,57.93,0,0,0-2.775,11.287,50.877,50.877,0,0,0-.362,10.629l.06.836h-7.354l.054-.83a60.588,60.588,0,0,1,2.282-13.144,28.25,28.25,0,0,1,4.505-9.529l.236-.287Zm1.162,1.563h-.789a27.843,27.843,0,0,0-3.984,8.693,58.58,58.58,0,0,0-2.161,11.972h4.014a52.527,52.527,0,0,1,.427-10.116A58.938,58.938,0,0,1,961.733,659.78Z" transform="translate(-929.858 -642.147)" fill="#00ffc9"/>
    <path id="Path_3744" data-name="Path 3744" d="M621.292,567.1h5.228v5.252h-1.563v-3.69h-3.666Z" transform="translate(-606.124 -553.255)" fill="#00ffc9"/>
    <path id="Path_3745" data-name="Path 3745" d="M925.287,567.1h5.229v5.252h-1.563v-3.69h-3.666Z" transform="translate(-902.697 -553.255)" fill="#00ffc9"/>
    <path id="Path_3746" data-name="Path 3746" d="M1228.79,567.1h5.228v5.252h-1.562v-3.69h-3.666Z" transform="translate(-1198.79 -553.255)" fill="#00ffc9"/>
    <path id="Path_3749" data-name="Path 3749" d="M318.27,260.27l-3.335,2.791,1.227-.013a.446.446,0,0,1,.289.787h0l-3.981,3.335,2.381-.311a.446.446,0,0,1,.376.755h0l-1.53,1.551,3.645-2.753-2.021.152a.447.447,0,0,1-.292-.81l3.976-3.235-1.7.015a.446.446,0,0,1-.342-.735h0l1.3-1.529Zm-4.866,2.907,8.35-6.988h0a.446.446,0,0,1,.625.632l-4.1,4.812,1.973-.018a.446.446,0,0,1,.3.791l-3.881,3.157,2.117-.159h0a.447.447,0,0,1,.3.8l-9.752,7.366h0a.446.446,0,0,1-.587-.669l4.926-4.993-2.586.338a.447.447,0,0,1-.37-.781l4.2-3.517-1.2.013a.447.447,0,0,1-.321-.788Z" transform="translate(-309.055 -257)" fill="#00ffc9"/>
  </g>
</svg>
