<svg id="pump_machine" data-name="pump machine" xmlns="http://www.w3.org/2000/svg" width="40" height="31.705" viewBox="0 0 40 31.705">
  <path id="Path_3690" data-name="Path 3690" d="M36.646,20.19a4.171,4.171,0,0,0-1.6-2.678V14.934A5.005,5.005,0,1,0,29.5,11.672h-1.96a.834.834,0,0,0-.834.834v7.508H25.034V9.17a.834.834,0,0,0-.834-.834H19.045A2.5,2.5,0,0,0,16.692,5H13.356A2.5,2.5,0,0,0,11,8.336,8.1,8.1,0,0,0,8.868,8.4c-.209.067,0-.117-3.612,3.512-.35.35-.242.309-.242,5.839l-3.3,1.093A2.5,2.5,0,0,0,.05,21.216v7.608a2.5,2.5,0,0,0,1.668,2.369c2.978.993,1.668.367,1.668,1.335v3.337a.834.834,0,0,0,.834.834H24.2a.834.834,0,0,0,.834-.834V30.025H26.7v5.839a.834.834,0,0,0,.834.834h5.005a.834.834,0,0,0,.834-.834V33.278a4.171,4.171,0,0,0,3.337-4.088c0-1.46-.217-.834.834-.834a2.5,2.5,0,0,0,2.5-2.5V22.517a2.5,2.5,0,0,0-3.4-2.327ZM34.211,6.667A3.337,3.337,0,1,1,30.874,10,3.337,3.337,0,0,1,34.211,6.667Zm-5.839,6.674H30.49a5.005,5.005,0,0,0,2.886,1.593v1.743H28.371ZM15.024,30.859v.834H6.682V18.346h8.342v9.176a.834.834,0,0,0,1.668,0V18.346h6.674V31.693H16.692v-.834a.834.834,0,1,0-1.668,0ZM13.356,6.667h3.337a.834.834,0,1,1,0,1.668H13.356a.834.834,0,1,1,0-1.668ZM9.527,10H23.366v6.674H6.682V12.849Zm-7.85,18.82V21.216c0-.834.584-.834,3.337-1.71V30.534c-2.761-.918-3.337-.918-3.337-1.71ZM23.366,35.03H5.013V33.362H23.366Zm1.668-6.674V21.683H26.7v6.674Zm6.674,6.674H28.371V33.362h3.337Zm3.337-5.839a2.5,2.5,0,0,1-2.5,2.5H28.371V18.346h4.171a2.5,2.5,0,0,1,2.5,2.5Zm3.337-3.337a.834.834,0,1,1-1.668,0V22.517a.834.834,0,1,1,1.668,0Z" transform="translate(-0.05 -4.993)" fill="#00ffc9"/>
  <path id="Path_3691" data-name="Path 3691" d="M40.5,13.005A2.5,2.5,0,1,0,38,10.5,2.5,2.5,0,0,0,40.5,13.005Zm0-3.337a.834.834,0,1,1-.834.834A.834.834,0,0,1,40.5,9.668Z" transform="translate(-6.342 -5.492)" fill="#00ffc9"/>
  <path id="Path_3692" data-name="Path 3692" d="M12.5,23a2.5,2.5,0,1,0,2.5,2.5A2.5,2.5,0,0,0,12.5,23Zm0,3.337a.834.834,0,1,1,.834-.834A.834.834,0,0,1,12.5,26.337Z" transform="translate(-1.7 -7.979)" fill="#00ffc9"/>
  <path id="Path_3693" data-name="Path 3693" d="M3.834,31a.834.834,0,1,0,.834.834A.834.834,0,0,0,3.834,31Z" transform="translate(-0.539 -9.305)" fill="#00ffc9"/>
  <path id="Path_3694" data-name="Path 3694" d="M3.834,27a.834.834,0,1,0,.834.834A.834.834,0,0,0,3.834,27Z" transform="translate(-0.539 -8.642)" fill="#00ffc9"/>
  <path id="Path_3695" data-name="Path 3695" d="M38.5,32H36.834a.834.834,0,0,0,0,1.668H38.5A.834.834,0,0,0,38.5,32Z" transform="translate(-6.01 -9.471)" fill="#00ffc9"/>
  <path id="Path_3696" data-name="Path 3696" d="M38.5,28H36.834a.834.834,0,1,0,0,1.668H38.5A.834.834,0,0,0,38.5,28Z" transform="translate(-6.01 -8.808)" fill="#00ffc9"/>
  <path id="Path_3697" data-name="Path 3697" d="M38.5,24H36.834a.834.834,0,1,0,0,1.668H38.5A.834.834,0,0,0,38.5,24Z" transform="translate(-6.01 -8.144)" fill="#00ffc9"/>
</svg>
